<svg xmlns="http://www.w3.org/2000/svg" xmlns:xlink="http://www.w3.org/1999/xlink" width="151.875" height="119.84" viewBox="0 0 151.875 119.84">
  <metadata><?xpacket begin="﻿" id="W5M0MpCehiHzreSzNTczkc9d"?>
<x:xmpmeta xmlns:x="adobe:ns:meta/" x:xmptk="Adobe XMP Core 5.6-c142 79.160924, 2017/07/13-01:06:39        ">
   <rdf:RDF xmlns:rdf="http://www.w3.org/1999/02/22-rdf-syntax-ns#">
      <rdf:Description rdf:about=""/>
   </rdf:RDF>
</x:xmpmeta>
                                                                                                    
                                                                                                    
                                                                                                    
                                                                                                    
                                                                                                    
                                                                                                    
                                                                                                    
                                                                                                    
                                                                                                    
                                                                                                    
                                                                                                    
                                                                                                    
                                                                                                    
                                                                                                    
                                                                                                    
                                                                                                    
                                                                                                    
                                                                                                    
                                                                                                    
                                                                                                    
                           
<?xpacket end="w"?></metadata>
<defs>
    <style>
      .cls-1 {
        fill-rule: evenodd;
        filter: url(#filter);
      }
    </style>
    <filter id="filter" x="245" y="2011.66" width="151.875" height="119.84" filterUnits="userSpaceOnUse">
      <feFlood result="flood" flood-color="#fff"/>
      <feComposite result="composite" operator="in" in2="SourceGraphic"/>
      <feBlend result="blend" in2="SourceGraphic"/>
    </filter>
  </defs>
  <path class="cls-1" d="M353.566,2055.36H348.13a2.56,2.56,0,0,0,0,5.12h5.436A2.56,2.56,0,0,0,353.566,2055.36Zm0.67,21.16a5.212,5.212,0,0,0-4.152-2.04H291.806a5.213,5.213,0,0,0-4.152,2.04,5.277,5.277,0,0,0-.958,4.54l1.36,5.46a5.265,5.265,0,0,0,5.109,4.01h55.56a5.267,5.267,0,0,0,5.11-4.01l1.359-5.46A5.277,5.277,0,0,0,354.236,2076.52Zm-3.987,3.3-1.359,5.46a0.167,0.167,0,0,1-.165.13h-55.56a0.167,0.167,0,0,1-.165-0.13l-1.359-5.46a0.164,0.164,0,0,1,.031-0.15,0.152,0.152,0,0,1,.134-0.07h58.278a0.152,0.152,0,0,1,.134.07A0.164,0.164,0,0,1,350.249,2079.82Zm38.656-19.34a8.025,8.025,0,0,0,0-16.05h-2.718a8.012,8.012,0,0,0-7.883,6.75l-6.8-18.79a10.731,10.731,0,0,0-10.059-7.08H342.063l-1.435-7.21a8.013,8.013,0,0,0-7.83-6.45H309.091a8.014,8.014,0,0,0-7.83,6.45l-1.434,7.21H280.444a10.731,10.731,0,0,0-10.059,7.08l-6.8,18.79a8.012,8.012,0,0,0-7.883-6.75h-2.719a8.025,8.025,0,0,0,0,16.05H255.7a7.91,7.91,0,0,0,3.5-.81l-5.826,7.32a13.557,13.557,0,0,0-2.941,8.42v50.81a5.282,5.282,0,0,0,5.266,5.29h8.156a5.283,5.283,0,0,0,5.267-5.29v-11.1H372.764v11.1a5.283,5.283,0,0,0,5.267,5.29h8.156a5.283,5.283,0,0,0,5.267-5.29v-50.81a13.558,13.558,0,0,0-2.942-8.42l-5.826-7.32a7.91,7.91,0,0,0,3.5.81h2.718Zm-133.2-5.12h-2.719a2.905,2.905,0,0,1,0-5.81H255.7A2.905,2.905,0,0,1,255.7,2055.36Zm50.556-36.26a2.9,2.9,0,0,1,2.831-2.33H332.8a2.9,2.9,0,0,1,2.832,2.33l1.235,6.21h-31.84Zm-42.231,107.12a0.173,0.173,0,0,1-.17.17H255.7a0.172,0.172,0,0,1-.169-0.17v-12.7a10.62,10.62,0,0,0,5.606,1.6h2.888v11.1h0ZM351.017,2110H290.873v-5.64a0.172,0.172,0,0,1,.17-0.17h59.805a0.173,0.173,0,0,1,.17.17V2110h0Zm35.34,16.22a0.173,0.173,0,0,1-.17.17h-8.156a0.173,0.173,0,0,1-.17-0.17v-11.1h2.889a10.62,10.62,0,0,0,5.606-1.6v12.7h0Zm-1.824-56.03a8.4,8.4,0,0,1,1.824,5.22v28.95a5.63,5.63,0,0,1-5.607,5.64H356.114v-5.64a5.282,5.282,0,0,0-5.267-5.29h-59.8a5.283,5.283,0,0,0-5.267,5.29V2110H261.14a5.629,5.629,0,0,1-5.606-5.64v-28.95a8.4,8.4,0,0,1,1.824-5.22l7.726-9.71h72.172a2.56,2.56,0,0,0,0-5.12H267.5l7.678-21.22a5.623,5.623,0,0,1,5.269-3.71h81a5.623,5.623,0,0,1,5.269,3.71l7.678,21.22H364.44a2.56,2.56,0,0,0,0,5.12h12.367Zm-1.235-17.73a2.906,2.906,0,0,1,2.889-2.91h2.718a2.905,2.905,0,0,1,0,5.81h-2.718A2.9,2.9,0,0,1,383.3,2052.46ZM272.014,2093.6a5.3,5.3,0,1,0,5.267,5.3A5.291,5.291,0,0,0,272.014,2093.6Zm97.862,0a5.3,5.3,0,1,0,5.267,5.3A5.29,5.29,0,0,0,369.876,2093.6Zm-99.221-21.85a9.39,9.39,0,1,0,9.344,9.39A9.377,9.377,0,0,0,270.655,2071.75Zm0,13.66a4.27,4.27,0,1,1,4.248-4.27A4.267,4.267,0,0,1,270.655,2085.41Zm100.58-13.66a9.39,9.39,0,1,0,9.345,9.39A9.376,9.376,0,0,0,371.235,2071.75Zm0,13.66a4.27,4.27,0,1,1,4.248-4.27A4.266,4.266,0,0,1,371.235,2085.41Z" transform="translate(-245 -2011.66)"/>
</svg>
